<?xml version="1.0" encoding="UTF-8"?>
<svg width="80" height="80" viewBox="0 0 80 80" fill="none" xmlns="http://www.w3.org/2000/svg">
    <!-- Shelf -->
    <rect x="10" y="60" width="60" height="5" fill="#6f2da8"/>
    
    <!-- Book 1 -->
    <rect x="15" y="25" width="12" height="35" rx="2" fill="#2d1f3d" stroke="#9c27b0" stroke-width="2"/>
    <rect x="17" y="30" width="8" height="2" fill="#9c27b0"/>
    <rect x="17" y="35" width="8" height="2" fill="#9c27b0"/>
    
    <!-- Book 2 -->
    <rect x="30" y="20" width="12" height="40" rx="2" fill="#2d1f3d" stroke="#ba68c8" stroke-width="2"/>
    <rect x="32" y="25" width="8" height="2" fill="#ba68c8"/>
    <rect x="32" y="30" width="8" height="2" fill="#ba68c8"/>
    
    <!-- Book 3 -->
    <rect x="45" y="15" width="12" height="45" rx="2" fill="#2d1f3d" stroke="#9c27b0" stroke-width="2"/>
    <rect x="47" y="20" width="8" height="2" fill="#9c27b0"/>
    <rect x="47" y="25" width="8" height="2" fill="#9c27b0"/>
    
    <!-- Floating Document -->
    <g transform="translate(55, 30)">
        <animate
            attributeName="transform"
            values="translate(55, 30); translate(55, 28); translate(55, 30)"
            dur="2s"
            repeatCount="indefinite"/>
        
        <!-- Document Base -->
        <path d="M0 0 L15 0 L15 20 L0 20 Z" fill="#2d1f3d" stroke="#6f2da8" stroke-width="2"/>
        
        <!-- Document Lines -->
        <line x1="3" y1="5" x2="12" y2="5" stroke="#6f2da8" stroke-width="1"/>
        <line x1="3" y1="10" x2="12" y2="10" stroke="#6f2da8" stroke-width="1"/>
        <line x1="3" y1="15" x2="8" y2="15" stroke="#6f2da8" stroke-width="1"/>
        
        <!-- Glowing Effect -->
        <rect x="0" y="0" width="15" height="20" stroke="#9c27b0" stroke-width="1" opacity="0.5">
            <animate
                attributeName="opacity"
                values="0.5;0;0.5"
                dur="2s"
                repeatCount="indefinite"/>
        </rect>
    </g>
</svg> 