<?xml version="1.0" encoding="UTF-8"?>
<svg width="80" height="80" viewBox="0 0 80 80" fill="none" xmlns="http://www.w3.org/2000/svg">
    <!-- Background Grid -->
    <path d="M15 15 L15 65 L65 65" stroke="#6f2da8" stroke-width="2"/>
    
    <!-- Grid Lines -->
    <line x1="15" y1="40" x2="65" y2="40" stroke="#6f2da8" stroke-width="1" opacity="0.3"/>
    <line x1="15" y1="27.5" x2="65" y2="27.5" stroke="#6f2da8" stroke-width="1" opacity="0.3"/>
    <line x1="15" y1="52.5" x2="65" y2="52.5" stroke="#6f2da8" stroke-width="1" opacity="0.3"/>
    
    <!-- Team 1 Graph -->
    <path d="M20 45 L30 35 L40 50 L50 30 L60 40" 
        stroke="#9c27b0" 
        stroke-width="3"
        stroke-linecap="round"
        stroke-linejoin="round"
        fill="none">
        <animate
            attributeName="stroke-dasharray"
            values="0,100;100,0"
            dur="1.5s"
            repeatCount="1"/>
    </path>
    
    <!-- Team 2 Graph -->
    <path d="M20 55 L30 45 L40 60 L50 40 L60 50" 
        stroke="#ba68c8" 
        stroke-width="3"
        stroke-linecap="round"
        stroke-linejoin="round"
        fill="none">
        <animate
            attributeName="stroke-dasharray"
            values="0,100;100,0"
            dur="1.5s"
            begin="0.5s"
            repeatCount="1"/>
    </path>
    
    <!-- Data Points Team 1 -->
    <circle cx="20" cy="45" r="3" fill="#9c27b0"/>
    <circle cx="30" cy="35" r="3" fill="#9c27b0"/>
    <circle cx="40" cy="50" r="3" fill="#9c27b0"/>
    <circle cx="50" cy="30" r="3" fill="#9c27b0"/>
    <circle cx="60" cy="40" r="3" fill="#9c27b0"/>
    
    <!-- Data Points Team 2 -->
    <circle cx="20" cy="55" r="3" fill="#ba68c8"/>
    <circle cx="30" cy="45" r="3" fill="#ba68c8"/>
    <circle cx="40" cy="60" r="3" fill="#ba68c8"/>
    <circle cx="50" cy="40" r="3" fill="#ba68c8"/>
    <circle cx="60" cy="50" r="3" fill="#ba68c8"/>
    
    <!-- Highlight Animation -->
    <circle cx="40" cy="50" r="5" stroke="#9c27b0" stroke-width="2" fill="none">
        <animate
            attributeName="r"
            values="5;7;5"
            dur="2s"
            repeatCount="indefinite"/>
        <animate
            attributeName="opacity"
            values="1;0;1"
            dur="2s"
            repeatCount="indefinite"/>
    </circle>
</svg> 